<svg width="153" height="24" viewBox="0 0 153 24" fill="none" xmlns="http://www.w3.org/2000/svg">
<path d="M34.2134 23.6794V0H38.772V23.6794H34.2134Z" fill="#4154F1"/>
<path d="M4.25468 18.7254H0C0.0106634 19.3881 0.133292 20.008 0.367886 20.5852C0.613143 21.1623 0.943708 21.6593 1.35958 22.0762C1.77545 22.4823 2.2553 22.835 2.79913 23.1343C3.34296 23.4228 3.91879 23.6366 4.5266 23.7755C5.13441 23.9252 5.75288 24 6.38202 24C7.2031 24 7.99752 23.8985 8.76528 23.6954C9.54371 23.503 10.2528 23.2198 10.8926 22.8457C11.5324 22.4609 12.0443 21.9532 12.4281 21.3226C12.812 20.692 13.004 19.9866 13.004 19.2064C13.004 18.9713 12.9773 18.7254 12.924 18.4689C12.8813 18.2017 12.7694 17.8811 12.5881 17.507C12.4175 17.1329 12.1882 16.7856 11.9003 16.4649C11.6231 16.1443 11.2179 15.829 10.6847 15.519C10.1622 15.1984 9.54904 14.9419 8.84526 14.7495L6.25406 14.0601C5.40099 13.8464 4.95313 13.4616 4.91048 12.9058C4.89982 12.5638 5.03844 12.2912 5.32635 12.0882C5.62492 11.8744 6.01947 11.7675 6.50998 11.7675C7.65096 11.7675 8.23212 12.2164 8.25344 13.1142H12.5401C12.5295 12.3874 12.4015 11.7355 12.1562 11.1583C11.911 10.5705 11.5857 10.0842 11.1805 9.6994C10.786 9.31463 10.3115 8.99399 9.75698 8.73747C9.21315 8.48096 8.64799 8.29926 8.0615 8.19238C7.48568 8.07482 6.8832 8.01603 6.25406 8.01603C4.66522 8.01603 3.27898 8.45959 2.09535 9.34669C0.911718 10.2231 0.309238 11.2331 0.287911 12.3768C0.277247 12.7615 0.282579 13.0822 0.303906 13.3387C0.325233 13.5952 0.415871 13.9425 0.575822 14.3808C0.735772 14.8083 0.965034 15.1824 1.26361 15.503C1.56218 15.813 2.02071 16.1443 2.63918 16.497C3.25766 16.8497 4.00409 17.1436 4.87849 17.3788L6.87787 17.9078C7.43236 18.0468 7.82158 18.2178 8.04551 18.4208C8.26944 18.6132 8.3814 18.8751 8.3814 19.2064C8.3814 19.5805 8.20013 19.8851 7.83757 20.1202C7.47502 20.3447 7.03249 20.4676 6.50998 20.489C5.90217 20.489 5.37967 20.3126 4.94247 19.9599C4.50527 19.5965 4.27601 19.185 4.25468 18.7254Z" fill="#4154F1"/>
<path fill-rule="evenodd" clip-rule="evenodd" d="M15.2913 15.9679C15.2913 17.5391 15.6485 18.9446 16.3629 20.1844C17.088 21.4135 18.0531 22.3594 19.258 23.022C20.4737 23.674 21.8119 24 23.2728 24C24.7017 24 26.0453 23.7488 27.3035 23.2465C28.5618 22.7442 29.5482 21.9586 30.2626 20.8898L26.9517 18.6293C26.5891 19.0995 26.1039 19.4576 25.4961 19.7034C24.899 19.9492 24.2698 20.0721 23.6087 20.0721C22.7023 20.0721 21.8706 19.853 21.1135 19.4148C20.367 18.9659 19.9405 18.33 19.8339 17.507H31.0464C31.089 16.9726 31.1104 16.5023 31.1104 16.0962C31.1104 14.9098 30.9024 13.8143 30.4866 12.8096C30.0813 11.7943 29.5269 10.9392 28.8231 10.2445C28.1193 9.54976 27.2875 9.00467 26.3278 8.60922C25.3681 8.21376 24.3498 8.01603 23.2728 8.01603C21.8119 8.01603 20.4737 8.34202 19.258 8.99399C18.0531 9.63527 17.088 10.5651 16.3629 11.7836C15.6485 13.002 15.2913 14.3968 15.2913 15.9679ZM26.5198 14.6533H19.8978C20.0791 13.7662 20.5056 13.1089 21.1774 12.6814C21.8492 12.2432 22.5583 12.024 23.3048 12.024C24.0512 12.024 24.7443 12.2485 25.3841 12.6974C26.0346 13.1356 26.4131 13.7876 26.5198 14.6533Z" fill="#4154F1"/>
<path d="M42.9467 0V23.6794H47.5053V0H42.9467Z" fill="#4154F1"/>
<path fill-rule="evenodd" clip-rule="evenodd" d="M51.8399 20.1844C51.1255 18.9446 50.7683 17.5391 50.7683 15.9679C50.7683 14.3968 51.1255 13.002 51.8399 11.7836C52.565 10.5651 53.5301 9.63527 54.735 8.99399C55.9507 8.34202 57.2889 8.01603 58.7498 8.01603C59.8268 8.01603 60.8451 8.21376 61.8049 8.60922C62.7646 9.00467 63.5963 9.54976 64.3001 10.2445C65.0039 10.9392 65.5584 11.7943 65.9636 12.8096C66.3794 13.8143 66.5874 14.9098 66.5874 16.0962C66.5874 16.5023 66.566 16.9726 66.5234 17.507H55.3109C55.4175 18.33 55.844 18.9659 56.5905 19.4148C57.3476 19.853 58.1793 20.0721 59.0857 20.0721C59.7468 20.0721 60.376 19.9492 60.9731 19.7034C61.5809 19.4576 62.0661 19.0995 62.4287 18.6293L65.7396 20.8898C65.0252 21.9586 64.0388 22.7442 62.7805 23.2465C61.5223 23.7488 60.1787 24 58.7498 24C57.2889 24 55.9507 23.674 54.735 23.022C53.5301 22.3594 52.565 21.4135 51.8399 20.1844ZM55.3748 14.6533H61.9968C61.8902 13.7876 61.5116 13.1356 60.8611 12.6974C60.2213 12.2485 59.5282 12.024 58.7818 12.024C58.0354 12.024 57.3262 12.2432 56.6544 12.6814C55.9827 13.1089 55.5561 13.7662 55.3748 14.6533Z" fill="#4154F1"/>
<path d="M69.6904 8.35271V23.6794H74.249V18.3246C74.249 16.2832 74.5529 14.7548 75.1607 13.7395C75.7792 12.7241 76.7389 12.2164 78.0398 12.2164C78.9675 12.2164 79.746 12.3714 80.3751 12.6814L81.1908 8.57715C80.4657 8.20307 79.5913 8.01603 78.5677 8.01603C77.6933 8.01603 76.8455 8.35805 76.0244 9.04208C75.2034 9.72612 74.6116 10.7308 74.249 12.0561V8.35271H69.6904Z" fill="#4154F1"/>
<path fill-rule="evenodd" clip-rule="evenodd" d="M82.4065 16.0641C82.4065 14.8671 82.6091 13.7609 83.0143 12.7455C83.4195 11.7194 83.958 10.8697 84.6298 10.1964C85.3122 9.51236 86.1013 8.97795 86.997 8.59319C87.8928 8.20842 88.8311 8.01603 89.8122 8.01603C90.7932 8.01603 91.6943 8.21376 92.5153 8.60922C93.3364 8.99399 93.9282 9.52839 94.2908 10.2124V0H98.8174V23.6794H94.2908V21.7715C93.9176 22.4663 93.3204 23.0114 92.4993 23.4068C91.6783 23.8023 90.7825 24 89.8122 24C88.8311 24 87.8928 23.813 86.997 23.4389C86.1013 23.0541 85.3122 22.525 84.6298 21.8517C83.958 21.1784 83.4195 20.3393 83.0143 19.3347C82.6091 18.33 82.4065 17.2398 82.4065 16.0641ZM87.125 15.9679C87.125 17.0688 87.4662 17.9613 88.1487 18.6453C88.8311 19.3293 89.6682 19.6713 90.6599 19.6713C91.6303 19.6713 92.462 19.324 93.1551 18.6293C93.8483 17.9345 94.1948 17.0474 94.1948 15.9679C94.1948 14.8671 93.8483 13.9853 93.1551 13.3226C92.4727 12.6493 91.6409 12.3126 90.6599 12.3126C89.6682 12.3126 88.8311 12.6546 88.1487 13.3387C87.4662 14.012 87.125 14.8884 87.125 15.9679Z" fill="#4154F1"/>
<path d="M121.706 11.9599V8.35271H124.489V2.46894H129.016V8.35271H132.231V11.9599H129.016V23.6794H124.489V11.9599H121.706Z" fill="#4154F1"/>
<path fill-rule="evenodd" clip-rule="evenodd" d="M102.736 12.697C102.299 13.7124 102.08 14.8132 102.08 15.9996C102.08 17.5814 102.459 18.9922 103.216 20.2321C103.983 21.4612 104.954 22.391 106.127 23.0216C107.3 23.6522 108.547 23.9675 109.87 23.9675C110.605 23.9675 111.421 23.7965 112.317 23.4545C113.223 23.1018 113.895 22.5941 114.332 21.9315V23.679H118.843V8.3523H114.332V10.0517C113.97 9.52798 113.474 9.10581 112.845 8.78516C112.226 8.45383 111.677 8.24542 111.197 8.15991C110.728 8.06372 110.286 8.01562 109.87 8.01562C108.889 8.01562 107.934 8.20801 107.007 8.59278C106.079 8.96686 105.247 9.49057 104.511 10.1639C103.776 10.8266 103.184 11.6709 102.736 12.697ZM106.799 15.9996C106.799 14.9415 107.182 14.0704 107.95 13.3864C108.729 12.6916 109.619 12.3443 110.621 12.3443C111.613 12.3443 112.477 12.681 113.213 13.3543C113.959 14.017 114.332 14.8987 114.332 15.9996C114.332 17.0898 113.959 17.9715 113.213 18.6449C112.477 19.3075 111.613 19.6389 110.621 19.6389C109.619 19.6389 108.729 19.2969 107.95 18.6128C107.182 17.9288 106.799 17.0577 106.799 15.9996Z" fill="#4154F1"/>
<path d="M134.535 12.697C134.098 13.7124 133.879 14.8132 133.879 15.9996C133.879 17.5814 134.257 18.9922 135.015 20.2321C135.782 21.4612 136.753 22.391 137.926 23.0216C139.099 23.6522 140.346 23.9675 141.668 23.9675C142.404 23.9675 143.22 23.7965 144.116 23.4545C145.022 23.1018 145.694 22.5941 146.131 21.9315V23.679H150.642V16.2649H146.124C146.067 17.2337 145.696 18.027 145.011 18.6449C144.276 19.3075 143.412 19.6389 142.42 19.6389C141.418 19.6389 140.528 19.2969 139.749 18.6128C138.981 17.9288 138.597 17.0577 138.597 15.9996C138.597 14.9415 138.981 14.0704 139.749 13.3864C140.528 12.6916 141.418 12.3443 142.42 12.3443C142.489 12.3443 142.558 12.3459 142.626 12.3492V8.0931C142.292 8.04145 141.973 8.01562 141.668 8.01562C140.687 8.01562 139.733 8.20801 138.805 8.59278C137.878 8.96686 137.046 9.49057 136.31 10.1639C135.574 10.8266 134.983 11.6709 134.535 12.697Z" fill="#4154F1"/>
<path d="M152.137 15.2056C152.137 14.0929 151.919 12.9911 151.494 11.9631C151.069 10.9351 150.446 10.001 149.661 9.21417C148.876 8.42736 147.944 7.80322 146.919 7.37741C145.893 6.95159 144.794 6.73242 143.684 6.73242L143.684 15.2056H152.137Z" fill="#EF5DA8"/>
</svg>
